<svg width="736" height="226" viewBox="0 0 736 226" fill="none" xmlns="http://www.w3.org/2000/svg">
<path opacity="0.8" d="M13.954 212.284C8.77761 206.236 4.493 199.353 3.62115 192C2.19834 180 -0.499997 113 1.77002 75.5C16.7554 121.884 58.8888 145.674 72.7956 161.923C86.7024 178.171 84.8039 202.617 68.5552 216.524C52.3066 230.431 27.8608 228.532 13.954 212.284Z" fill="url(#paint0_linear_79_65)"/>
<path opacity="0.75" fill-rule="evenodd" clip-rule="evenodd" d="M33.64 183.675C32.5954 185.547 32.0001 187.704 32.0001 190C32.0001 197.18 37.8204 203 45.0001 203C52.1798 203 58.0001 197.18 58.0001 190C58.0001 182.82 52.1798 177 45.0001 177C42.5615 177 40.2798 177.671 38.3297 178.839C21.3697 162.847 1.95007 140 1.95007 140L2.00007 150C2.00007 150 13.3655 165.319 33.64 183.675ZM51.0001 190C51.0001 193.314 48.3138 196 45.0001 196C41.6864 196 39.0001 193.314 39.0001 190C39.0001 186.686 41.6864 184 45.0001 184C48.3138 184 51.0001 186.686 51.0001 190Z" fill="white"/>
<path opacity="0.9" d="M15.3602 18.2915C8.91163 26.1632 6.03753 35.5279 4.38107 44.8469C0.621088 66 -0.598329 137.826 3.62109 193C21.4942 133.311 74.6186 102.177 91.9432 81.0294C109.268 59.8816 106.168 28.6936 85.0206 11.369C63.8728 -5.95563 32.6848 -2.8563 15.3602 18.2915Z" fill="url(#paint1_linear_79_65)"/>
<path fill-rule="evenodd" clip-rule="evenodd" d="M69 50C69 59.3888 61.3888 67 52 67C48.8453 67 45.8912 66.1407 43.3592 64.6433C16.4514 92.0437 8.07112 108.785 2.20737 120.499C1.7768 121.359 1.3598 122.192 0.950024 123L0.900024 107C2.0876 97.1036 21.1001 73.9853 36.5172 57.0303C35.5428 54.8877 35 52.5072 35 50C35 40.6112 42.6112 33 52 33C61.3888 33 69 40.6112 69 50ZM62 50C62 55.5228 57.5229 60 52 60C46.4772 60 42 55.5228 42 50C42 44.4772 46.4772 40 52 40C57.5229 40 62 44.4772 62 50Z" fill="white"/>
<path d="M133.24 159L133.24 73.56H189.16V85.92H148.48V109.44H186.76V121.8H148.48L148.48 159H133.24ZM200.712 159V70.68H215.712V159H200.712ZM283.964 152.28C281.084 154.68 277.524 156.56 273.284 157.92C269.124 159.2 264.884 159.84 260.564 159.84C254.004 159.84 248.324 158.6 243.524 156.12C238.804 153.64 235.164 150.04 232.604 145.32C230.044 140.6 228.764 135 228.764 128.52C228.764 122.28 230.004 116.8 232.484 112.08C234.964 107.28 238.404 103.56 242.804 100.92C247.204 98.2 252.284 96.84 258.044 96.84C263.644 96.84 268.444 98.08 272.444 100.56C276.444 102.96 279.524 106.44 281.684 111C283.924 115.56 285.044 120.96 285.044 127.2V129.48H241.964L242.084 121.44L276.164 121.44L272.084 125.52C272.164 119.68 271.004 115.24 268.604 112.2C266.284 109.16 262.884 107.64 258.404 107.64C253.604 107.64 249.884 109.36 247.244 112.8C244.604 116.16 243.284 121 243.284 127.32C243.284 134.52 244.764 139.84 247.724 143.28C250.684 146.64 255.164 148.32 261.164 148.32C264.444 148.32 267.644 147.8 270.764 146.76C273.964 145.64 276.924 144.04 279.644 141.96L283.964 152.28ZM338.554 159L322.114 138.48L313.594 127.8L289.594 98.4H307.354L322.114 117.24L330.874 127.8L356.194 159H338.554ZM305.914 159H288.034L313.594 127.8L322.114 117.24L336.874 98.4H354.754L330.874 127.8L322.114 138.48L305.914 159ZM363.134 159V98.4H378.134V159H363.134ZM362.414 70.92H379.094V85.68H362.414V70.92Z" fill="#333333"/>
<path d="M395.506 159V73.56H452.626V85.68H410.626V109.44H450.226V121.68H410.626V146.88H452.626V159H395.506ZM465.673 159V70.68H480.673V159H465.673ZM520.485 159.84C515.205 159.84 510.525 158.6 506.445 156.12C502.365 153.56 499.205 149.96 496.965 145.32C494.805 140.6 493.725 135.08 493.725 128.76C493.725 122.36 494.845 116.8 497.085 112.08C499.325 107.28 502.445 103.56 506.445 100.92C510.525 98.2 515.205 96.84 520.485 96.84C525.605 96.84 530.045 98.12 533.805 100.68C537.645 103.16 540.245 106.64 541.605 111.12L540.165 111.96V98.4H554.925V159H540.165V145.32L541.605 145.8C540.245 150.28 537.645 153.76 533.805 156.24C530.045 158.64 525.605 159.84 520.485 159.84ZM524.565 148.32C529.525 148.32 533.365 146.6 536.085 143.16C538.805 139.72 540.165 134.84 540.165 128.52C540.165 122.04 538.805 117.12 536.085 113.76C533.365 110.32 529.525 108.6 524.565 108.6C519.525 108.6 515.605 110.36 512.805 113.88C510.005 117.4 508.605 122.36 508.605 128.76C508.605 135 510.005 139.84 512.805 143.28C515.605 146.64 519.525 148.32 524.565 148.32ZM571.142 159V70.68H586.142V112.8L584.822 111C586.102 106.68 588.622 103.24 592.382 100.68C596.142 98.12 600.582 96.84 605.702 96.84C611.062 96.84 615.742 98.12 619.742 100.68C623.742 103.24 626.902 106.88 629.222 111.6C631.542 116.32 632.702 121.84 632.702 128.16C632.702 134.48 631.542 140.04 629.222 144.84C626.902 149.64 623.702 153.36 619.622 156C615.622 158.56 610.982 159.84 605.702 159.84C600.582 159.84 596.142 158.64 592.382 156.24C588.622 153.76 586.102 150.28 584.822 145.8L586.142 143.64V159H571.142ZM601.862 148.32C606.822 148.32 610.662 146.56 613.382 143.04C616.102 139.52 617.462 134.56 617.462 128.16C617.462 121.92 616.102 117.12 613.382 113.76C610.662 110.32 606.822 108.6 601.862 108.6C596.742 108.6 592.822 110.32 590.102 113.76C587.462 117.2 586.142 122.08 586.142 128.4C586.142 134.8 587.462 139.72 590.102 143.16C592.822 146.6 596.742 148.32 601.862 148.32ZM697.636 152.28C694.756 154.68 691.196 156.56 686.956 157.92C682.796 159.2 678.556 159.84 674.236 159.84C667.676 159.84 661.996 158.6 657.196 156.12C652.476 153.64 648.836 150.04 646.276 145.32C643.716 140.6 642.436 135 642.436 128.52C642.436 122.28 643.676 116.8 646.156 112.08C648.636 107.28 652.076 103.56 656.476 100.92C660.876 98.2 665.956 96.84 671.716 96.84C677.316 96.84 682.116 98.08 686.116 100.56C690.116 102.96 693.196 106.44 695.356 111C697.596 115.56 698.716 120.96 698.716 127.2V129.48H655.636L655.756 121.44H689.836L685.756 125.52C685.836 119.68 684.676 115.24 682.276 112.2C679.956 109.16 676.556 107.64 672.076 107.64C667.276 107.64 663.556 109.36 660.916 112.8C658.276 116.16 656.956 121 656.956 127.32C656.956 134.52 658.436 139.84 661.396 143.28C664.356 146.64 668.836 148.32 674.836 148.32C678.116 148.32 681.316 147.8 684.436 146.76C687.636 145.64 690.596 144.04 693.316 141.96L697.636 152.28ZM711.298 159V70.68H726.298V159H711.298Z" fill="#30A7CD"/>
<defs>
<linearGradient id="paint0_linear_79_65" x1="13.7" y1="211.986" x2="72.5416" y2="161.625" gradientUnits="userSpaceOnUse">
<stop stop-color="#30E7E5"/>
<stop offset="1" stop-color="#298ECA"/>
</linearGradient>
<linearGradient id="paint1_linear_79_65" x1="15.044" y1="18.6789" x2="91.627" y2="81.4168" gradientUnits="userSpaceOnUse">
<stop stop-color="#34A3DB"/>
<stop offset="1" stop-color="#227CB5"/>
</linearGradient>
</defs>
</svg>

