<svg width="104" height="226" viewBox="0 0 104 226" fill="none" xmlns="http://www.w3.org/2000/svg">
<path opacity="0.8" d="M13.954 212.284C8.77761 206.236 4.493 199.353 3.62115 192C2.19834 180 -0.5 113 1.77002 75.5C16.7554 121.884 58.8888 145.674 72.7956 161.923C86.7024 178.171 84.8039 202.617 68.5552 216.524C52.3066 230.431 27.8608 228.532 13.954 212.284Z" fill="url(#paint0_linear_79_66)"/>
<path opacity="0.75" fill-rule="evenodd" clip-rule="evenodd" d="M33.64 183.675C32.5954 185.547 32.0001 187.704 32.0001 190C32.0001 197.18 37.8204 203 45.0001 203C52.1798 203 58.0001 197.18 58.0001 190C58.0001 182.82 52.1798 177 45.0001 177C42.5615 177 40.2798 177.671 38.3297 178.839C21.3697 162.847 1.95007 140 1.95007 140L2.00007 150C2.00007 150 13.3655 165.319 33.64 183.675ZM51.0001 190C51.0001 193.314 48.3138 196 45.0001 196C41.6864 196 39.0001 193.314 39.0001 190C39.0001 186.686 41.6864 184 45.0001 184C48.3138 184 51.0001 186.686 51.0001 190Z" fill="white"/>
<path opacity="0.9" d="M15.3602 18.2915C8.91163 26.1632 6.03753 35.5279 4.38107 44.8469C0.621091 66 -0.598333 137.826 3.62109 193C21.4942 133.311 74.6186 102.177 91.9432 81.0294C109.268 59.8816 106.168 28.6936 85.0206 11.369C63.8728 -5.95563 32.6848 -2.8563 15.3602 18.2915Z" fill="url(#paint1_linear_79_66)"/>
<path fill-rule="evenodd" clip-rule="evenodd" d="M69 50C69 59.3888 61.3888 67 52 67C48.8453 67 45.8912 66.1407 43.3592 64.6433C16.4514 92.0437 8.07112 108.785 2.20737 120.499C1.7768 121.359 1.3598 122.192 0.950024 123L0.900024 107C2.0876 97.1036 21.1001 73.9853 36.5172 57.0303C35.5428 54.8877 35 52.5072 35 50C35 40.6112 42.6112 33 52 33C61.3888 33 69 40.6112 69 50ZM62 50C62 55.5228 57.5229 60 52 60C46.4772 60 42 55.5228 42 50C42 44.4772 46.4772 40 52 40C57.5229 40 62 44.4772 62 50Z" fill="white"/>
<defs>
<linearGradient id="paint0_linear_79_66" x1="13.7" y1="211.986" x2="72.5416" y2="161.625" gradientUnits="userSpaceOnUse">
<stop stop-color="#30E7E5"/>
<stop offset="1" stop-color="#298ECA"/>
</linearGradient>
<linearGradient id="paint1_linear_79_66" x1="15.044" y1="18.6789" x2="91.627" y2="81.4168" gradientUnits="userSpaceOnUse">
<stop stop-color="#34A3DB"/>
<stop offset="1" stop-color="#227CB5"/>
</linearGradient>
</defs>
</svg>
